<svg width="250" height="240" viewBox="0 0 250 240" fill="none" xmlns="http://www.w3.org/2000/svg">
<rect width="250" height="240" fill="white"/>
<circle cx="123.5" cy="119.5" r="70.5" fill="#EF8BF6"/>
<path d="M76.6755 164.678L91.5792 179.581L74.1915 196.969C70.076 201.085 63.4033 201.085 59.2878 196.969V196.969C55.1723 192.853 55.1722 186.181 59.2878 182.065L76.6755 164.678Z" fill="#EF8BF6"/>
<path d="M152.427 181.376L167.331 166.472L184.718 183.86C188.834 187.976 188.834 194.648 184.718 198.764V198.764C180.603 202.879 173.93 202.879 169.815 198.764L152.427 181.376Z" fill="#EF8BF6"/>
<path d="M110.852 124.326L127.137 110.945L150.205 139.022C153.899 143.519 153.249 150.16 148.752 153.854V153.854C144.255 157.549 137.614 156.899 133.919 152.402L110.852 124.326Z" fill="white"/>
<path d="M131.929 124.435H110.852V88.0977C110.852 82.2775 115.57 77.5592 121.39 77.5592V77.5592C127.21 77.5592 131.929 82.2775 131.929 88.0977V124.435Z" fill="white"/>
<path d="M86.7111 48.9037C82.7584 44.951 77.3974 42.7304 71.8074 42.7304C66.2174 42.7304 60.8564 44.951 56.9037 48.9037C52.951 52.8564 50.7304 58.2175 50.7304 63.8074C50.7304 69.3974 52.951 74.7584 56.9037 78.7111L71.8074 63.8074L86.7111 48.9037Z" fill="#EF8BF6"/>
<path d="M192.096 78.7111C196.049 74.7584 198.27 69.3974 198.27 63.8074C198.27 58.2174 196.049 52.8564 192.096 48.9037C188.144 44.951 182.783 42.7304 177.193 42.7304C171.603 42.7304 166.242 44.951 162.289 48.9037L177.193 63.8074L192.096 78.7111Z" fill="#EF8BF6"/>
</svg>
