<svg width="24" height="24" viewBox="0 0 24 24" fill="none" xmlns="http://www.w3.org/2000/svg">
<rect width="24" height="24" fill="white"/>
<path d="M15.6164 18.3333L16.6073 17.3915C17.0221 16.9973 17.0221 16.3361 16.6073 15.9419L8.1958 7.94652C7.80978 7.5796 7.20392 7.5796 6.8179 7.94652L4.76254 9.90019C4.3478 10.2944 4.34781 10.9556 4.76254 11.3498L13.1741 19.3451C13.5601 19.7121 14.1659 19.7121 14.552 19.3451L15.6164 18.3333ZM15.6164 18.3333L17.1554 19.8191C17.3481 20.0051 17.6531 20.0063 17.8472 19.8218L20.1881 17.5968C20.3951 17.4 20.3955 17.07 20.1889 16.8727L14.2426 11.1958C14.036 10.9985 14.0364 10.6685 14.2434 10.4717L16.0548 8.74999M16.0548 8.74999L16.3076 8.99413C16.6942 9.36742 17.3067 9.36841 17.6945 8.99638L20.2509 6.54393C20.66 6.15147 20.6614 5.49778 20.254 5.1036L19.6924 4.56027C19.3059 4.18635 18.6929 4.18505 18.3048 4.55735L15.7484 7.00977C15.3396 7.40199 15.3379 8.0552 15.7447 8.4495L16.0548 8.74999Z" stroke="black"/>
</svg>
